# xmcd
#
# Track frame offsets:
#	150
#	20705
#	55037
#	89497
#
# Disc length: 1430 seconds
#
# Revision: 0
# Processed by: cddbd v1.5.1PL0 Copyright (c) Steve Scherf et al.
# Submitted via: dBpowerAMP V4.0
#
DISCID=2c059404
DTITLE=Mariah Carey - Can't Take That Away (Mariah's Theme) (Single)
DYEAR=2000
DGENRE=Dance
TTITLE0=Can't Take That Away (Mariah's Theme) (Album Version)
TTITLE1=Can't Take That Away (Mariah's Theme) (Morales Club Mix)
TTITLE2=Can't Take That Away (Mariah's Theme) (Morales Instrumental)
TTITLE3=Can't Take That Away (Mariah's Theme) (Morales Club Mix Edit)
EXTD=
EXTT0=
EXTT1=
EXTT2=
EXTT3=
PLAYORDER=
